<svg xmlns="http://www.w3.org/2000/svg" id="prefix__ic_navigation_logo_160dp_44dp" width="70" height="20" viewBox="0 0 70 20">
    <defs>
        <clipPath id="prefix__clip-path">
            <path id="prefix__패스_19" d="M5.329-39.638H8.25l5.479 13.952h-3.006l-1.194-3.168H6.361l.839-2.351h1.442l-1.885-5.178-1.848 5.178-.842 2.351h-.008L2.93-25.685H0zm10.657 13.953v-13.953h2.762v13.952zM17.367-45a2.156 2.156 0 0 1 2.133 2.176 2.156 2.156 0 0 1-2.134 2.176 2.156 2.156 0 0 1-2.134-2.176A2.156 2.156 0 0 1 17.367-45z" class="prefix__cls-1" data-name="패스 19" transform="translate(0 45)"/>
        </clipPath>
        <clipPath id="prefix__clip-path-2">
            <path id="prefix__사각형_4" d="M0 0H52.583V53.624H0z" class="prefix__cls-1" data-name="사각형 4"/>
        </clipPath>
        <clipPath id="prefix__clip-path-3">
            <path id="prefix__패스_18" d="M-36-83h52.583v53.624H-36z" data-name="패스 18" transform="translate(36 83)" style="clip-rule:evenodd;fill:none"/>
        </clipPath>
        <clipPath id="prefix__clip-path-4">
            <path id="prefix__패스_17" d="M0-25.338h19.719V-45H0z" class="prefix__cls-1" data-name="패스 17" transform="translate(0 45)"/>
        </clipPath>
        <clipPath id="prefix__clip-path-5">
            <path id="prefix__패스_21" d="M51-29.64V-32h10.873v2.36h-4.05v11.592H55.06V-29.64zm20.417 5.359V-32h2.763v7.329a19.159 19.159 0 0 1-.224 3.55 3.966 3.966 0 0 1-.826 1.751 4.179 4.179 0 0 1-1.61 1.137 6.882 6.882 0 0 1-2.632.424 7.441 7.441 0 0 1-2.973-.462 4.253 4.253 0 0 1-1.6-1.2 3.883 3.883 0 0 1-.775-1.546 17.289 17.289 0 0 1-.271-3.54V-32h2.762v7.557a16.046 16.046 0 0 0 .1 2.332 2.267 2.267 0 0 0 .845 1.375 2.9 2.9 0 0 0 1.825.519 2.746 2.746 0 0 0 1.773-.49 1.945 1.945 0 0 0 .718-1.2 16.076 16.076 0 0 0 .125-2.374zM91.009-20.4h7.643v2.351H88.246V-32h10.145v2.36h-7.382v3.093h6.869v2.347h-6.869zm-7.253-.642a1.737 1.737 0 0 0 .387-1.185 1.846 1.846 0 0 0-.3-1.066 1.689 1.689 0 0 0-.863-.638 9.208 9.208 0 0 0-2.45-.2h-.073v-.016l.829-2.316c.406-.008.684-.02.831-.038a1.811 1.811 0 0 0 1.115-.5 1.49 1.49 0 0 0 .406-1.09 1.55 1.55 0 0 0-.35-1.052 1.575 1.575 0 0 0-1.041-.49c-.254-.03-.958-.045-2.1-.048H78.3v3.226h.007v2.322H78.3v3.733h2.557a12.315 12.315 0 0 0 1.894-.085 1.7 1.7 0 0 0 1.005-.556zm.649-4.421a3.594 3.594 0 0 1 1.922 1.263 3.406 3.406 0 0 1 .672 2.1 4.213 4.213 0 0 1-.434 1.851A3.711 3.711 0 0 1 85.38-18.8a3.869 3.869 0 0 1-1.853.662q-.691.076-3.332.1h-4.656V-32h5.469a15.478 15.478 0 0 1 2.422.138 3.515 3.515 0 0 1 1.428.576 3.549 3.549 0 0 1 1.05 1.166 3.2 3.2 0 0 1 .42 1.632 3.3 3.3 0 0 1-.518 1.8 3.231 3.231 0 0 1-1.41 1.227z" class="prefix__cls-1" data-name="패스 21" transform="translate(-51 32)"/>
        </clipPath>
        <style>
            .prefix__cls-1{fill:none}
        </style>
    </defs>
    <g id="prefix__그룹_26" data-name="그룹 26">
        <g id="prefix__그룹_25" data-name="그룹 25" transform="translate(-15.775 -16.981)">
            <g id="prefix__그룹_24" data-name="그룹 24">
                <g id="prefix__그룹_23" data-name="그룹 23" transform="translate(15.775 16.981)">
                    <path id="prefix__패스_16" d="M-41-88h56.965v58.092H-41z" data-name="패스 16" transform="translate(23.034 68.785)" style="fill:#fdc13e"/>
                </g>
            </g>
        </g>
    </g>
    <g id="prefix__그룹_27" data-name="그룹 27" transform="translate(22.348 5.809)">
        <path id="prefix__패스_20" d="M46-37h52.034v18.659H46z" data-name="패스 20" transform="translate(-48.191 34.766)" style="fill:#474747"/>
    </g>
</svg>
